<svg xmlns="http://www.w3.org/2000/svg" viewBox="0 0 512 512"><path d="M256 45.423v428.664c-29.787-.45-60.082 1.237-79.829-40.44a82.463 82.463 0 0 1-1.247-2.692L26.867 352.189s-35.125-22.138-19.03-58.915a64.4 64.4 0 0 1 4.241-8.1s-.763-1.479-1.907-4.044C3.77 266.745-14.509 218 22.615 201.048a48.792 48.792 0 0 1 4.922-1.953 69.458 69.458 0 0 1 .254-9.486c1.456-17 9.255-51.821 48.124-62.855a82.81 82.81 0 0 1 6.724-1.606 50.6 50.6 0 0 1 2.369-7.037c6.055-14.789 25.489-47.373 78.107-42.162 1.8.174 3.651.405 5.534.671a42.221 42.221 0 0 1 3.709-7c7.95-12.52 29.961-36.433 78.142-25.56q2.687.606 5.5 1.363ZM504.175 293.274c16.083 36.777-19.042 58.915-19.042 58.915l-148.057 78.766c-.4.913-.82 1.814-1.247 2.692-19.747 41.677-50.042 39.99-79.829 40.44V45.423q2.808-.762 5.5-1.363c48.181-10.873 70.192 13.044 78.142 25.558a42.221 42.221 0 0 1 3.709 7c1.883-.266 3.732-.5 5.534-.671 52.618-5.211 72.052 27.373 78.107 42.162a50.6 50.6 0 0 1 2.369 7.037 82.81 82.81 0 0 1 6.724 1.606c38.869 11.034 46.668 45.859 48.124 62.855a69.458 69.458 0 0 1 .254 9.486 48.792 48.792 0 0 1 4.922 1.953c37.124 16.95 18.845 65.7 12.444 80.083-1.144 2.565-1.907 4.044-1.907 4.044a66.168 66.168 0 0 1 4.253 8.101Z" fill="#28bea0" class="fill-f5f2e3"></path><path d="M242.712 385.155a5.325 5.325 0 0 1-6.139-3.123c-2.092-4.955-4.045-9.943-5.941-14.945-1.232-3.2-2.383-6.415-3.576-9.622l-3.421-9.661c-4.488-12.9-8.638-25.876-12.548-38.912-7.876-26.058-14.7-52.366-20.9-78.827S178.416 177 173.616 150.2c-2.363-13.406-4.552-26.853-6.462-40.367-1.675-12.028-3.212-24.089-4.253-36.269a5.308 5.308 0 0 1 4.064-5.6l.134-.032a5.308 5.308 0 0 1 6.157 3.154c4.58 11.334 8.665 22.786 12.612 34.27 4.409 12.917 8.539 25.9 12.5 38.925q11.757 39.1 21.343 78.721c6.445 26.4 12.254 52.952 17.016 79.755 2.41 13.4 4.579 26.847 6.41 40.38l1.319 10.162c.386 3.4.815 6.791 1.163 10.2.571 5.318 1.086 10.65 1.461 16.015a5.324 5.324 0 0 1-4.062 5.563ZM227.862 393.285a5.322 5.322 0 0 1-6.733-1.409c-3.192-4.075-6.267-8.214-9.3-12.374-3.927-5.365-7.733-10.8-11.5-16.251-7.51-10.919-14.73-21.994-21.8-33.152q-21.06-33.553-40.018-68.25c-12.692-23.1-24.723-46.563-35.827-70.528-5.558-11.98-10.925-24.064-15.948-36.334l-3.715-9.231c-1.189-3.1-2.427-6.181-3.574-9.308-1.821-4.842-3.589-9.713-5.227-14.654a5.326 5.326 0 0 1 2.5-6.364l.383-.207a5.325 5.325 0 0 1 6.7 1.363c3.257 4.062 6.384 8.193 9.458 12.354 2 2.662 3.91 5.375 5.87 8.06l5.729 8.136c7.567 10.887 14.793 21.959 21.826 33.137 14.079 22.348 27.23 45.2 39.721 68.411q18.759 34.8 35.53 70.691c5.522 12 10.893 24.08 15.975 36.318 2.533 6.124 5.022 12.271 7.39 18.484 1.842 4.81 3.644 9.64 5.33 14.535a5.322 5.322 0 0 1-2.479 6.417ZM213.148 407.072a5.309 5.309 0 0 1-6.978.063c-8.071-6.96-15.857-14.173-23.557-21.461q-13.185-12.543-25.942-25.465c-17.024-17.216-33.517-34.9-49.67-52.888s-31.9-36.337-46.943-55.3Q48.735 237.828 38 223.113c-6.261-8.618-12.416-17.33-18.191-26.378a5.3 5.3 0 0 1 .976-6.81l.165-.146a5.3 5.3 0 0 1 6.878-.143c8.28 6.832 16.181 14 23.975 21.259Q65.1 223.343 77.821 236.3c17 17.238 33.3 35.093 49.2 53.308s31.447 36.735 46.469 55.722q11.288 14.221 22.127 28.841c6.3 8.528 12.515 17.131 18.444 25.988a5.308 5.308 0 0 1-.909 6.918ZM202.8 425.644a5.3 5.3 0 0 1-6.681 1.663c-7.837-3.956-15.472-8.194-23.043-12.521q-13.276-7.641-26.231-15.729c-17.288-10.764-34.162-22.105-50.785-33.8s-32.927-23.827-48.7-36.7q-11.858-9.62-23.247-19.89c-6.513-5.893-12.948-11.9-19.1-18.289a5.286 5.286 0 0 1-.456-6.742l.281-.392a5.288 5.288 0 0 1 6.533-1.731c8.029 3.78 15.779 7.949 23.449 12.228q13.363 7.518 26.3 15.64c17.254 10.811 33.98 22.359 50.383 34.356s32.559 24.341 48.3 37.263q11.832 9.654 23.31 19.8c6.527 5.784 12.991 11.656 19.251 17.81a5.3 5.3 0 0 1 .567 6.862ZM269.288 385.155a5.325 5.325 0 0 0 6.139-3.123c2.092-4.955 4.045-9.943 5.941-14.945 1.232-3.2 2.383-6.415 3.576-9.622l3.421-9.661c4.488-12.9 8.638-25.876 12.548-38.912 7.876-26.058 14.7-52.366 20.9-78.827S333.584 177 338.384 150.2c2.363-13.406 4.552-26.853 6.462-40.367 1.675-12.028 3.212-24.089 4.253-36.269a5.308 5.308 0 0 0-4.064-5.6l-.134-.032a5.308 5.308 0 0 0-6.157 3.154c-4.58 11.334-8.665 22.786-12.612 34.27-4.409 12.917-8.539 25.9-12.5 38.925q-11.757 39.1-21.343 78.721c-6.445 26.4-12.254 52.952-17.016 79.755-2.41 13.4-4.579 26.847-6.41 40.38l-1.319 10.162c-.386 3.4-.815 6.791-1.163 10.2-.571 5.318-1.086 10.65-1.461 16.015a5.324 5.324 0 0 0 4.062 5.563ZM284.138 393.285a5.322 5.322 0 0 0 6.733-1.409c3.192-4.075 6.267-8.214 9.3-12.374 3.927-5.365 7.733-10.8 11.5-16.251 7.51-10.919 14.73-21.994 21.8-33.152q21.06-33.553 40.018-68.25c12.692-23.1 24.723-46.563 35.827-70.528 5.558-11.98 10.925-24.064 15.948-36.334l3.715-9.231c1.189-3.1 2.427-6.181 3.574-9.308 1.821-4.842 3.589-9.713 5.227-14.654a5.326 5.326 0 0 0-2.5-6.364l-.383-.207a5.325 5.325 0 0 0-6.7 1.363c-3.257 4.062-6.384 8.193-9.458 12.354-2 2.662-3.91 5.375-5.87 8.06l-5.729 8.136c-7.567 10.887-14.793 21.959-21.826 33.137-14.079 22.348-27.23 45.2-39.721 68.411q-18.759 34.8-35.53 70.691c-5.522 12-10.893 24.08-15.975 36.318-2.533 6.124-5.022 12.271-7.39 18.484-1.842 4.81-3.644 9.64-5.33 14.535a5.322 5.322 0 0 0 2.479 6.417ZM298.852 407.072a5.309 5.309 0 0 0 6.978.063c8.071-6.96 15.857-14.173 23.557-21.461q13.185-12.543 25.942-25.465c17.024-17.216 33.517-34.9 49.67-52.888s31.895-36.337 46.943-55.3q11.323-14.19 22.055-28.9c6.261-8.618 12.416-17.33 18.191-26.378a5.3 5.3 0 0 0-.976-6.81l-.165-.146a5.3 5.3 0 0 0-6.878-.143c-8.28 6.832-16.181 14-23.975 21.259q-13.293 12.448-26.015 25.4c-17 17.238-33.3 35.093-49.2 53.308s-31.447 36.735-46.469 55.722q-11.288 14.221-22.127 28.841c-6.3 8.528-12.515 17.131-18.444 25.988a5.308 5.308 0 0 0 .909 6.918ZM309.2 425.644a5.3 5.3 0 0 0 6.681 1.663c7.837-3.956 15.472-8.194 23.043-12.521q13.276-7.641 26.231-15.729c17.288-10.764 34.162-22.105 50.785-33.8s32.927-23.827 48.7-36.7q11.858-9.62 23.247-19.89c6.513-5.893 12.948-11.9 19.1-18.289a5.286 5.286 0 0 0 .456-6.742l-.281-.392a5.288 5.288 0 0 0-6.533-1.731c-8.029 3.78-15.779 7.949-23.449 12.228q-13.363 7.518-26.3 15.64c-17.254 10.811-33.98 22.359-50.383 34.356S367.946 368.08 352.206 381q-11.832 9.654-23.31 19.8c-6.527 5.784-12.991 11.656-19.251 17.81a5.3 5.3 0 0 0-.567 6.862ZM255.952 382.231a4.882 4.882 0 0 1-4.538-4.576q-1.065-8.472-1.872-16.944c-.715-7.174-1.308-14.347-1.878-21.52-1.1-14.347-1.921-28.693-2.577-43.04q-1.938-43.039-1.792-86.079.062-43.04 1.929-86.08c.673-14.346 1.489-28.693 2.568-43.039.986-12.811 2.087-25.622 3.638-38.433.32-2.647 2.267-4.607 4.545-4.607h.05c2.278 0 4.225 1.96 4.545 4.607 1.551 12.811 2.652 25.622 3.638 38.433 1.079 14.346 1.895 28.693 2.568 43.039q1.917 43.039 1.929 86.08.093 43.039-1.792 86.079c-.656 14.347-1.476 28.693-2.577 43.04-.57 7.173-1.163 14.346-1.878 21.52q-.809 8.472-1.872 16.944a4.882 4.882 0 0 1-4.538 4.576Z" fill="#94e0d6" class="fill-e3dfca"></path><path d="M335.829 433.647c-19.747 41.677-50.042 39.99-79.829 40.44-29.787-.45-60.082 1.237-79.829-40.44a79.776 79.776 0 0 1 9.671-30.411 80.642 80.642 0 0 1 23.929-26.586 78.85 78.85 0 0 1 14.166-7.973q3.12-1.368 6.355-2.461a79.374 79.374 0 0 1 15.228-3.524 73.11 73.11 0 0 1 3.189-.346c2.4-.22 4.83-.335 7.291-.335s4.887.115 7.291.335a73.11 73.11 0 0 1 3.189.346 79.374 79.374 0 0 1 15.228 3.524q3.242 1.092 6.355 2.461a78.85 78.85 0 0 1 14.166 7.973 80.354 80.354 0 0 1 23.929 26.586 79.776 79.776 0 0 1 9.671 30.411Z" fill="#28bea0" class="fill-f5f2e3"></path></svg>